<svg id="visual" viewBox="0 0 960 540" width="960" height="540" xmlns="http://www.w3.org/2000/svg" xmlns:xlink="http://www.w3.org/1999/xlink" version="1.1"><rect x="0" y="0" width="960" height="540" fill="#001122"></rect><path d="M0 111L42 111L42 44L83 44L83 20L125 20L125 128L167 128L167 137L209 137L209 31L250 31L250 186L292 186L292 53L334 53L334 129L376 129L376 28L417 28L417 125L459 125L459 126L501 126L501 236L543 236L543 182L584 182L584 188L626 188L626 251L668 251L668 109L710 109L710 116L751 116L751 59L793 59L793 211L835 211L835 21L877 21L877 193L918 193L918 220L960 220L960 82L960 541L960 541L918 541L918 541L877 541L877 541L835 541L835 541L793 541L793 541L751 541L751 541L710 541L710 541L668 541L668 541L626 541L626 541L584 541L584 541L543 541L543 541L501 541L501 541L459 541L459 541L417 541L417 541L376 541L376 541L334 541L334 541L292 541L292 541L250 541L250 541L209 541L209 541L167 541L167 541L125 541L125 541L83 541L83 541L42 541L42 541L0 541Z" fill="#434343"></path><path d="M0 184L42 184L42 175L83 175L83 237L125 237L125 168L167 168L167 59L209 59L209 125L250 125L250 209L292 209L292 80L334 80L334 214L376 214L376 223L417 223L417 241L459 241L459 243L501 243L501 253L543 253L543 233L584 233L584 125L626 125L626 83L668 83L668 258L710 258L710 274L751 274L751 72L793 72L793 205L835 205L835 68L877 68L877 100L918 100L918 148L960 148L960 228L960 541L960 541L918 541L918 541L877 541L877 541L835 541L835 541L793 541L793 541L751 541L751 541L710 541L710 541L668 541L668 541L626 541L626 541L584 541L584 541L543 541L543 541L501 541L501 541L459 541L459 541L417 541L417 541L376 541L376 541L334 541L334 541L292 541L292 541L250 541L250 541L209 541L209 541L167 541L167 541L125 541L125 541L83 541L83 541L42 541L42 541L0 541Z" fill="#3d3d3d"></path><path d="M0 197L42 197L42 209L83 209L83 267L125 267L125 230L167 230L167 139L209 139L209 154L250 154L250 204L292 204L292 154L334 154L334 291L376 291L376 165L417 165L417 189L459 189L459 205L501 205L501 146L543 146L543 229L584 229L584 100L626 100L626 157L668 157L668 236L710 236L710 227L751 227L751 259L793 259L793 129L835 129L835 166L877 166L877 201L918 201L918 240L960 240L960 265L960 541L960 541L918 541L918 541L877 541L877 541L835 541L835 541L793 541L793 541L751 541L751 541L710 541L710 541L668 541L668 541L626 541L626 541L584 541L584 541L543 541L543 541L501 541L501 541L459 541L459 541L417 541L417 541L376 541L376 541L334 541L334 541L292 541L292 541L250 541L250 541L209 541L209 541L167 541L167 541L125 541L125 541L83 541L83 541L42 541L42 541L0 541Z" fill="#373737"></path><path d="M0 305L42 305L42 163L83 163L83 191L125 191L125 242L167 242L167 166L209 166L209 294L250 294L250 174L292 174L292 266L334 266L334 240L376 240L376 306L417 306L417 222L459 222L459 240L501 240L501 183L543 183L543 311L584 311L584 298L626 298L626 313L668 313L668 231L710 231L710 327L751 327L751 222L793 222L793 243L835 243L835 293L877 293L877 231L918 231L918 260L960 260L960 165L960 541L960 541L918 541L918 541L877 541L877 541L835 541L835 541L793 541L793 541L751 541L751 541L710 541L710 541L668 541L668 541L626 541L626 541L584 541L584 541L543 541L543 541L501 541L501 541L459 541L459 541L417 541L417 541L376 541L376 541L334 541L334 541L292 541L292 541L250 541L250 541L209 541L209 541L167 541L167 541L125 541L125 541L83 541L83 541L42 541L42 541L0 541Z" fill="#323232"></path><path d="M0 326L42 326L42 242L83 242L83 263L125 263L125 352L167 352L167 198L209 198L209 267L250 267L250 284L292 284L292 246L334 246L334 310L376 310L376 242L417 242L417 337L459 337L459 344L501 344L501 336L543 336L543 272L584 272L584 237L626 237L626 299L668 299L668 260L710 260L710 288L751 288L751 193L793 193L793 284L835 284L835 218L877 218L877 179L918 179L918 237L960 237L960 271L960 541L960 541L918 541L918 541L877 541L877 541L835 541L835 541L793 541L793 541L751 541L751 541L710 541L710 541L668 541L668 541L626 541L626 541L584 541L584 541L543 541L543 541L501 541L501 541L459 541L459 541L417 541L417 541L376 541L376 541L334 541L334 541L292 541L292 541L250 541L250 541L209 541L209 541L167 541L167 541L125 541L125 541L83 541L83 541L42 541L42 541L0 541Z" fill="#2c2c2c"></path><path d="M0 228L42 228L42 310L83 310L83 359L125 359L125 378L167 378L167 219L209 219L209 239L250 239L250 360L292 360L292 216L334 216L334 223L376 223L376 362L417 362L417 309L459 309L459 373L501 373L501 278L543 278L543 367L584 367L584 376L626 376L626 311L668 311L668 243L710 243L710 301L751 301L751 362L793 362L793 316L835 316L835 352L877 352L877 244L918 244L918 241L960 241L960 293L960 541L960 541L918 541L918 541L877 541L877 541L835 541L835 541L793 541L793 541L751 541L751 541L710 541L710 541L668 541L668 541L626 541L626 541L584 541L584 541L543 541L543 541L501 541L501 541L459 541L459 541L417 541L417 541L376 541L376 541L334 541L334 541L292 541L292 541L250 541L250 541L209 541L209 541L167 541L167 541L125 541L125 541L83 541L83 541L42 541L42 541L0 541Z" fill="#272727"></path><path d="M0 296L42 296L42 351L83 351L83 296L125 296L125 388L167 388L167 316L209 316L209 334L250 334L250 319L292 319L292 268L334 268L334 380L376 380L376 291L417 291L417 285L459 285L459 290L501 290L501 331L543 331L543 404L584 404L584 295L626 295L626 372L668 372L668 290L710 290L710 263L751 263L751 306L793 306L793 301L835 301L835 258L877 258L877 267L918 267L918 332L960 332L960 355L960 541L960 541L918 541L918 541L877 541L877 541L835 541L835 541L793 541L793 541L751 541L751 541L710 541L710 541L668 541L668 541L626 541L626 541L584 541L584 541L543 541L543 541L501 541L501 541L459 541L459 541L417 541L417 541L376 541L376 541L334 541L334 541L292 541L292 541L250 541L250 541L209 541L209 541L167 541L167 541L125 541L125 541L83 541L83 541L42 541L42 541L0 541Z" fill="#212121"></path><path d="M0 420L42 420L42 297L83 297L83 373L125 373L125 417L167 417L167 373L209 373L209 362L250 362L250 406L292 406L292 431L334 431L334 401L376 401L376 392L417 392L417 339L459 339L459 362L501 362L501 384L543 384L543 345L584 345L584 422L626 422L626 370L668 370L668 407L710 407L710 365L751 365L751 404L793 404L793 408L835 408L835 400L877 400L877 352L918 352L918 316L960 316L960 299L960 541L960 541L918 541L918 541L877 541L877 541L835 541L835 541L793 541L793 541L751 541L751 541L710 541L710 541L668 541L668 541L626 541L626 541L584 541L584 541L543 541L543 541L501 541L501 541L459 541L459 541L417 541L417 541L376 541L376 541L334 541L334 541L292 541L292 541L250 541L250 541L209 541L209 541L167 541L167 541L125 541L125 541L83 541L83 541L42 541L42 541L0 541Z" fill="#1c1c1c"></path><path d="M0 364L42 364L42 394L83 394L83 389L125 389L125 410L167 410L167 437L209 437L209 419L250 419L250 408L292 408L292 451L334 451L334 409L376 409L376 362L417 362L417 400L459 400L459 421L501 421L501 382L543 382L543 422L584 422L584 406L626 406L626 424L668 424L668 343L710 343L710 395L751 395L751 437L793 437L793 382L835 382L835 358L877 358L877 453L918 453L918 407L960 407L960 424L960 541L960 541L918 541L918 541L877 541L877 541L835 541L835 541L793 541L793 541L751 541L751 541L710 541L710 541L668 541L668 541L626 541L626 541L584 541L584 541L543 541L543 541L501 541L501 541L459 541L459 541L417 541L417 541L376 541L376 541L334 541L334 541L292 541L292 541L250 541L250 541L209 541L209 541L167 541L167 541L125 541L125 541L83 541L83 541L42 541L42 541L0 541Z" fill="#171717"></path><path d="M0 397L42 397L42 441L83 441L83 474L125 474L125 397L167 397L167 401L209 401L209 475L250 475L250 481L292 481L292 423L334 423L334 477L376 477L376 438L417 438L417 424L459 424L459 420L501 420L501 417L543 417L543 414L584 414L584 440L626 440L626 379L668 379L668 385L710 385L710 442L751 442L751 430L793 430L793 427L835 427L835 430L877 430L877 430L918 430L918 449L960 449L960 421L960 541L960 541L918 541L918 541L877 541L877 541L835 541L835 541L793 541L793 541L751 541L751 541L710 541L710 541L668 541L668 541L626 541L626 541L584 541L584 541L543 541L543 541L501 541L501 541L459 541L459 541L417 541L417 541L376 541L376 541L334 541L334 541L292 541L292 541L250 541L250 541L209 541L209 541L167 541L167 541L125 541L125 541L83 541L83 541L42 541L42 541L0 541Z" fill="#111111"></path><path d="M0 509L42 509L42 442L83 442L83 473L125 473L125 422L167 422L167 461L209 461L209 456L250 456L250 505L292 505L292 502L334 502L334 424L376 424L376 499L417 499L417 496L459 496L459 487L501 487L501 480L543 480L543 475L584 475L584 508L626 508L626 506L668 506L668 487L710 487L710 487L751 487L751 423L793 423L793 444L835 444L835 424L877 424L877 500L918 500L918 422L960 422L960 455L960 541L960 541L918 541L918 541L877 541L877 541L835 541L835 541L793 541L793 541L751 541L751 541L710 541L710 541L668 541L668 541L626 541L626 541L584 541L584 541L543 541L543 541L501 541L501 541L459 541L459 541L417 541L417 541L376 541L376 541L334 541L334 541L292 541L292 541L250 541L250 541L209 541L209 541L167 541L167 541L125 541L125 541L83 541L83 541L42 541L42 541L0 541Z" fill="#090909"></path><path d="M0 513L42 513L42 464L83 464L83 460L125 460L125 461L167 461L167 507L209 507L209 497L250 497L250 534L292 534L292 530L334 530L334 498L376 498L376 491L417 491L417 529L459 529L459 465L501 465L501 529L543 529L543 485L584 485L584 524L626 524L626 477L668 477L668 480L710 480L710 533L751 533L751 526L793 526L793 515L835 515L835 470L877 470L877 491L918 491L918 517L960 517L960 471L960 541L960 541L918 541L918 541L877 541L877 541L835 541L835 541L793 541L793 541L751 541L751 541L710 541L710 541L668 541L668 541L626 541L626 541L584 541L584 541L543 541L543 541L501 541L501 541L459 541L459 541L417 541L417 541L376 541L376 541L334 541L334 541L292 541L292 541L250 541L250 541L209 541L209 541L167 541L167 541L125 541L125 541L83 541L83 541L42 541L42 541L0 541Z" fill="#000000"></path></svg>